<svg id="Icon" xmlns="http://www.w3.org/2000/svg" viewBox="0 0 1024 1024"><defs><style>.cls-1{fill:#005691;}.cls-2{fill:#009fe3;}</style></defs><title>LG_AVANTO_smart_connector_RZ_CMYK</title><path class="cls-1" d="M219.65,337.59l19.85,19.85a83.78,83.78,0,0,1,115-.05l19.85-19.85a112,112,0,0,0-154.7.05Z"/><path class="cls-1" d="M179.9,297.84l19.8,19.8a140,140,0,0,1,194.3.25l19.8-19.8a168,168,0,0,0-233.9-.25Z"/><path class="cls-1" d="M160.25,278.19a195.95,195.95,0,0,1,273.5-.05l19.8-19.8a223.94,223.94,0,0,0-313.09.05Z"/><rect class="cls-1" x="95" y="525" width="186" height="96" transform="translate(-385 761) rotate(-90)"/><polygon class="cls-1" points="883.56 572.7 855.74 572.7 855.74 510.61 827.74 510.61 827.74 479.73 740.84 479.73 740.84 665.73 827.74 665.73 827.74 634.61 855.74 634.61 855.74 603.7 883.56 603.7 883.56 572.7"/><path class="cls-2" d="M712.67,438.32,388.74,384.85h-.07q-47.65.08-80.66,9.69-17.67,5.2-44,18L264,470h0V834.29q26.32,12.82,44,18,33,9.63,80.73,9.69v0l246.13-22.41v-.07l.08,0,77.61-145.17h.14v-256h0Zm-28,248.79L617.34,813.05,388.72,833.86v0c-4.78,0-9.17-.13-12.13-.13q-30.49,0-50.23-10.39L326,777.16h0V724.87c53.37,1.72,118.67-14.7,118.67-14.7,51.93-17.86,0-32.33,0-32.33s-65.3-16.43-118.67-14.7V634.88c53.51,1.67,118.84-14.71,118.84-14.71,52.11-17.86,0-32.33,0-32.33S379.51,571.46,326,573.12V544.88c53.51,1.67,118.84-14.71,118.84-14.71,52.11-17.86,0-32.33,0-32.33S379.51,481.46,326,483.12V470h0l.37-46.45q19.75-10.4,50.23-10.39h12.07l296,48.93Z"/></svg>