<?xml version="1.0" encoding="UTF-8" standalone="no"?>
<svg
   xmlns:dc="http://purl.org/dc/elements/1.1/"
   xmlns:cc="http://creativecommons.org/ns#"
   xmlns:rdf="http://www.w3.org/1999/02/22-rdf-syntax-ns#"
   xmlns:svg="http://www.w3.org/2000/svg"
   xmlns="http://www.w3.org/2000/svg"
   viewBox="0 0 826.66669 858.66669"
   height="858.66669"
   width="826.66669"
   xml:space="preserve"
   id="svg2"
   version="1.1"><metadata
     id="metadata8"><rdf:RDF><cc:Work
         rdf:about=""><dc:format>image/svg+xml</dc:format><dc:type
           rdf:resource="http://purl.org/dc/dcmitype/StillImage" /></cc:Work></rdf:RDF></metadata><defs
     id="defs6" /><g
     transform="matrix(1.3333333,0,0,-1.3333333,0,858.66667)"
     id="g10"><g
       transform="scale(0.1)"
       id="g12"><path
         id="path14"
         style="fill:#00adef;fill-opacity:1;fill-rule:nonzero;stroke:none"
         d="m 1522.17,5318.52 c -154.92,0 -280.5,-125.57 -280.5,-280.49 0,-154.93 125.58,-280.5 280.5,-280.5 154.92,0 280.49,125.57 280.49,280.5 0,154.92 -125.57,280.49 -280.49,280.49 z M 4960,4757.53 H 2481.66 v 560.99 H 4960 v -560.99" /><path
         id="path16"
         style="fill:#00adef;fill-opacity:1;fill-rule:nonzero;stroke:none"
         d="m 1522.17,4200.49 c -154.92,0 -280.5,-125.57 -280.5,-280.49 0,-154.93 125.58,-280.5 280.5,-280.5 154.92,0 280.49,125.57 280.49,280.5 0,154.92 -125.57,280.49 -280.49,280.49 z M 4960,3639.5 H 2481.66 v 560.99 H 4960 V 3639.5" /><path
         id="path18"
         style="fill:#00adef;fill-opacity:1;fill-rule:nonzero;stroke:none"
         d="m 1522.17,3080.5 c -154.92,0 -280.5,-125.57 -280.5,-280.49 0,-154.93 125.58,-280.5 280.5,-280.5 154.92,0 280.49,125.57 280.49,280.5 0,154.92 -125.57,280.49 -280.49,280.49 z M 4960,2519.51 H 2481.66 V 3080.5 H 4960 v -560.99" /><path
         id="path20"
         style="fill:#00adef;fill-opacity:1;fill-rule:nonzero;stroke:none"
         d="m 1522.17,1960.49 c -154.92,0 -280.5,-125.57 -280.5,-280.49 0,-154.93 125.58,-280.5 280.5,-280.5 154.92,0 280.49,125.57 280.49,280.5 0,154.92 -125.57,280.49 -280.49,280.49 z M 4960,1399.5 H 2481.66 v 560.99 H 4960 V 1399.5" /><path
         id="path22"
         style="fill:#0e5590;fill-opacity:1;fill-rule:nonzero;stroke:none"
         d="M 620,280 V 6160 H 5580 V 280 Z M 0,6440 V 0 H 6200 V 6440 H 0" /></g></g></svg>