<?xml version="1.0" encoding="UTF-8" standalone="no"?>
<svg
   xmlns:dc="http://purl.org/dc/elements/1.1/"
   xmlns:cc="http://creativecommons.org/ns#"
   xmlns:rdf="http://www.w3.org/1999/02/22-rdf-syntax-ns#"
   xmlns:svg="http://www.w3.org/2000/svg"
   xmlns="http://www.w3.org/2000/svg"
   viewBox="0 0 858.61334 549.32001"
   height="549.32001"
   width="858.61334"
   xml:space="preserve"
   id="svg2"
   version="1.1"><metadata
     id="metadata8"><rdf:RDF><cc:Work
         rdf:about=""><dc:format>image/svg+xml</dc:format><dc:type
           rdf:resource="http://purl.org/dc/dcmitype/StillImage" /></cc:Work></rdf:RDF></metadata><defs
     id="defs6"><clipPath
       id="clipPath20"
       clipPathUnits="userSpaceOnUse"><path
         id="path18"
         d="M 0,4119.95 V 0 h 6439.58 v 4119.95 z" /></clipPath></defs><g
     transform="matrix(1.3333333,0,0,-1.3333333,0,549.32)"
     id="g10"><g
       transform="scale(0.1)"
       id="g12"><g
         id="g14"><g
           clip-path="url(#clipPath20)"
           id="g16"><path
             id="path22"
             style="fill:#00adef;fill-opacity:1;fill-rule:nonzero;stroke:none"
             d="m 3219.5,2670.6 c 469.06,0 850.67,-381.65 850.67,-850.75 0,-469.01 -381.61,-850.58 -850.67,-850.58 -469.06,0 -850.66,381.57 -850.66,850.58 0,469.1 381.6,850.75 850.66,850.75 m 0,482.26 c -736.18,0 -1332.92,-596.73 -1332.92,-1333.01 0,-736.11 596.74,-1332.838 1332.92,-1332.838 736.11,0 1332.92,596.728 1332.92,1332.838 0,736.28 -596.81,1333.01 -1332.92,1333.01" /><path
             id="path24"
             style="fill:#0e5590;fill-opacity:1;fill-rule:nonzero;stroke:none"
             d="M 536.641,4119.95 V 3877.6 H 0 V 0 H 6439.58 V 3877.6 H 1609.89 v 242.35 z m 0,-484.7 H 5902.94 V 242.359 H 536.641 V 3635.25" /><path
             id="path26"
             style="fill:#0e5590;fill-opacity:1;fill-rule:nonzero;stroke:none"
             d="m 1341.23,3297.8 c -147.86,0 -268.26,-120.37 -268.26,-268.34 0,-147.88 120.4,-268.28 268.26,-268.28 147.99,0 268.39,120.4 268.39,268.28 0,147.97 -120.4,268.34 -268.39,268.34" /></g></g></g></g></svg>