<?xml version="1.0" encoding="UTF-8" standalone="no"?>
<!-- Created with Inkscape (http://www.inkscape.org/) -->

<svg
   xmlns:dc="http://purl.org/dc/elements/1.1/"
   xmlns:cc="http://creativecommons.org/ns#"
   xmlns:rdf="http://www.w3.org/1999/02/22-rdf-syntax-ns#"
   xmlns:svg="http://www.w3.org/2000/svg"
   xmlns="http://www.w3.org/2000/svg"
   xmlns:sodipodi="http://sodipodi.sourceforge.net/DTD/sodipodi-0.dtd"
   xmlns:inkscape="http://www.inkscape.org/namespaces/inkscape"
   id="svg2"
   version="1.1"
   inkscape:version="0.91 r13725"
   xml:space="preserve"
   width="874.79999"
   height="875"
   viewBox="0 0 874.79999 875"
   sodipodi:docname="LG_Icon_Maintenance_CMYK_RZ_w.svg"><metadata
     id="metadata8"><rdf:RDF><cc:Work
         rdf:about=""><dc:format>image/svg+xml</dc:format><dc:type
           rdf:resource="http://purl.org/dc/dcmitype/StillImage" /><dc:title></dc:title></cc:Work></rdf:RDF></metadata><defs
     id="defs6" /><sodipodi:namedview
     pagecolor="#ffffff"
     bordercolor="#666666"
     borderopacity="1"
     objecttolerance="10"
     gridtolerance="10"
     guidetolerance="10"
     inkscape:pageopacity="0"
     inkscape:pageshadow="2"
     inkscape:window-width="717"
     inkscape:window-height="480"
     id="namedview4"
     showgrid="false"
     inkscape:zoom="0.26971429"
     inkscape:cx="437.39999"
     inkscape:cy="437.5"
     inkscape:window-x="0"
     inkscape:window-y="0"
     inkscape:window-maximized="0"
     inkscape:current-layer="g10" /><g
     id="g10"
     inkscape:groupmode="layer"
     inkscape:label="ink_ext_XXXXXX"
     transform="matrix(1.25,0,0,-1.25,0,875)"><g
       id="g12"
       transform="scale(0.1,0.1)"><path
         d="m 6688.28,3594.74 -322.05,-333.46 c -24.86,-303.84 -97.05,-598.84 -215.84,-879.7 C 6005.55,2039.14 5798.07,1731.46 5533.71,1467.1 5269.34,1202.73 4961.66,995.25 4619.22,850.41 4328.03,727.25 4021.64,654.109 3705.96,631.941 L 4037.87,300.02 3747.64,0 C 5491.8,122.031 6883.63,1531.64 6992.87,3279.33 l -304.59,315.41"
         style="fill:#ffffff;fill-opacity:1;fill-rule:nonzero;stroke:none"
         id="path14"
         inkscape:connector-curvature="0" /><path
         d="m 3591.15,6375.81 c 356.27,-11 701.7,-86.17 1028.07,-224.21 342.44,-144.84 650.12,-352.32 914.49,-616.69 264.36,-264.36 471.84,-572.04 616.68,-914.48 137.7,-325.55 212.83,-670.06 224.1,-1025.35 l 313.77,313.75 310.16,-310.15 C 6947.99,5439.28 5476.5,6926.82 3641.66,7000 l -347.34,-337.52 296.83,-286.67"
         style="fill:#ffffff;fill-opacity:1;fill-rule:nonzero;stroke:none"
         id="path16"
         inkscape:connector-curvature="0" /><path
         d="m 340.469,3165.27 283.476,293.52 c -0.195,14.06 -0.527,28.11 -0.527,42.22 0,388.58 75.977,765.2 225.781,1119.42 144.844,342.44 352.321,650.12 616.701,914.48 264.35,264.37 572.03,471.85 914.47,616.69 285.18,120.62 584.9,193.28 893.67,217.05 L 2980.23,6662.46 3319.8,7000 C 1478.81,6903.63 8.78906,5380.75 0,3517.83 l 340.469,-352.56"
         style="fill:#ffffff;fill-opacity:1;fill-rule:nonzero;stroke:none"
         id="path18"
         inkscape:connector-curvature="0" /><path
         d="m 3385.14,627.059 c -348.01,13.511 -685.51,88.32 -1004.77,223.351 -342.44,144.84 -650.12,352.32 -914.47,616.69 -264.38,264.36 -471.857,572.04 -616.701,914.48 -104.844,247.91 -173.398,506.84 -205.176,773.14 L 340.488,2851.18 14.8633,3176.8 C 175.938,1423.43 1630.04,42.3203 3415.25,0 l 308.54,300 -338.65,327.059"
         style="fill:#ffffff;fill-opacity:1;fill-rule:nonzero;stroke:none"
         id="path20"
         inkscape:connector-curvature="0" /><path
         d="m 5267.48,3802.36 c 286.09,286.1 371.82,696.76 257.29,1057.58 l -596.76,-596.77 -558.48,121.38 -121.37,558.47 596.76,596.77 C 4484.12,5654.32 4073.44,5568.6 3787.34,5282.5 3503.87,4999.03 3417.11,4593.56 3526.71,4235.34 L 1475,2183.64 l 693.61,-693.61 2051.7,2051.71 c 358.24,-109.62 763.69,-22.85 1047.17,260.62"
         style="fill:#ffffff;fill-opacity:1;fill-rule:nonzero;stroke:none"
         id="path22"
         inkscape:connector-curvature="0" /></g></g></svg>