<?xml version="1.0" encoding="UTF-8" standalone="no"?>
<svg
   xmlns:dc="http://purl.org/dc/elements/1.1/"
   xmlns:cc="http://creativecommons.org/ns#"
   xmlns:rdf="http://www.w3.org/1999/02/22-rdf-syntax-ns#"
   xmlns:svg="http://www.w3.org/2000/svg"
   xmlns="http://www.w3.org/2000/svg"
   viewBox="0 0 660.89331 932.93335"
   height="932.93335"
   width="660.89331"
   xml:space="preserve"
   id="svg2"
   version="1.1"><metadata
     id="metadata8"><rdf:RDF><cc:Work
         rdf:about=""><dc:format>image/svg+xml</dc:format><dc:type
           rdf:resource="http://purl.org/dc/dcmitype/StillImage" /></cc:Work></rdf:RDF></metadata><defs
     id="defs6"><clipPath
       id="clipPath20"
       clipPathUnits="userSpaceOnUse"><path
         id="path18"
         d="M 0,6996.97 V 0 h 4956.73 v 6996.97 z" /></clipPath></defs><g
     transform="matrix(1.3333333,0,0,-1.3333333,0,932.93333)"
     id="g10"><g
       transform="scale(0.1)"
       id="g12"><g
         id="g14"><g
           clip-path="url(#clipPath20)"
           id="g16"><path
             id="path22"
             style="fill:#ffffff;fill-opacity:1;fill-rule:nonzero;stroke:none"
             d="m 1079.25,5597.97 c 0,-772.93 626.58,-1399.16 1399.12,-1399.16 772.61,0 1399.19,626.23 1399.19,1399.16 0,772.54 -626.58,1399 -1399.19,1399 -772.54,0 -1399.12,-626.46 -1399.12,-1399" /><path
             id="path24"
             style="fill:#ffffff;fill-opacity:1;fill-rule:nonzero;stroke:none"
             d="M 929.121,424.25 V 1960 c 0,1030 439.999,1560 1549.249,1560 1160.75,0 1520.75,-540 1520.75,-1561.05 l 0.04,-1534.7 z M 2478.37,3917.42 C 1239.18,3917.42 0,3358.84 0,1684.36 L 0.625,0 H 4956.73 v 1684.36 c 0,1674.48 -1239.18,2233.06 -2478.36,2233.06" /></g></g></g></g></svg>