<?xml version="1.0" encoding="UTF-8" standalone="no"?>
<!-- Created with Inkscape (http://www.inkscape.org/) -->

<svg
   xmlns:dc="http://purl.org/dc/elements/1.1/"
   xmlns:cc="http://creativecommons.org/ns#"
   xmlns:rdf="http://www.w3.org/1999/02/22-rdf-syntax-ns#"
   xmlns:svg="http://www.w3.org/2000/svg"
   xmlns="http://www.w3.org/2000/svg"
   xmlns:sodipodi="http://sodipodi.sourceforge.net/DTD/sodipodi-0.dtd"
   xmlns:inkscape="http://www.inkscape.org/namespaces/inkscape"
   id="svg2"
   version="1.1"
   inkscape:version="0.91 r13725"
   xml:space="preserve"
   width="804.95001"
   height="757.33752"
   viewBox="0 0 804.95001 757.33752"
   sodipodi:docname="LG_Icon_Search_CMYK_RZ.svg"><metadata
     id="metadata8"><rdf:RDF><cc:Work
         rdf:about=""><dc:format>image/svg+xml</dc:format><dc:type
           rdf:resource="http://purl.org/dc/dcmitype/StillImage" /><dc:title></dc:title></cc:Work></rdf:RDF></metadata><defs
     id="defs6" /><sodipodi:namedview
     pagecolor="#ffffff"
     bordercolor="#666666"
     borderopacity="1"
     objecttolerance="10"
     gridtolerance="10"
     guidetolerance="10"
     inkscape:pageopacity="0"
     inkscape:pageshadow="2"
     inkscape:window-width="717"
     inkscape:window-height="480"
     id="namedview4"
     showgrid="false"
     inkscape:zoom="0.31161799"
     inkscape:cx="402.47501"
     inkscape:cy="378.66876"
     inkscape:window-x="0"
     inkscape:window-y="0"
     inkscape:window-maximized="0"
     inkscape:current-layer="g10" /><g
     id="g10"
     inkscape:groupmode="layer"
     inkscape:label="ink_ext_XXXXXX"
     transform="matrix(1.25,0,0,-1.25,0,757.3375)"><g
       id="g12"
       transform="scale(0.1,0.1)"><path
         d="M 6439.58,484.691 3820.41,2568.57 c 295.6,367.81 472.6,834.99 472.6,1343.58 0,1185.48 -961.02,2146.5 -2146.51,2146.5 C 961.016,6058.65 0,5097.63 0,3912.15 0,2726.66 961.016,1765.64 2146.5,1765.64 c 588.39,0 1121.4,236.82 1509.14,620.22 L 6004.11,0 6439.58,484.691 Z M 2146.5,2302.26 c -430.01,0 -834.28,167.46 -1138.36,471.53 -304.058,304.07 -471.507,708.35 -471.507,1138.36 0,430.02 167.449,834.3 471.507,1138.37 304.08,304.06 708.35,471.52 1138.36,471.52 430.02,0 834.31,-167.46 1138.36,-471.52 304.08,-304.07 471.54,-708.35 471.54,-1138.37 0,-430.01 -167.46,-834.29 -471.54,-1138.36 -304.05,-304.07 -708.34,-471.53 -1138.36,-471.53"
         style="fill:#0e5590;fill-opacity:1;fill-rule:nonzero;stroke:none"
         id="path14"
         inkscape:connector-curvature="0" /><path
         d="m 2666.36,4441.53 c 3.55,-3.98 6.86,-8.13 10.31,-12.18 l 352.64,305.27 c -11.62,11.68 -23.42,23.18 -35.48,34.37 -120.86,112.28 -263.06,199.86 -415.88,256.5 -152.73,56.87 -315.89,82.24 -475.57,75.97 -159.73,-6 -317.99,-43.62 -461.48,-109.96 -143.66,-66.13 -272.52,-160.38 -377.94,-274.55 -105.51,-114.1 -187.63,-248.18 -240.56,-392.03 -53.13,-143.78 -76.587,-297.13 -70.337,-447.38 l 242.337,0 c 6.08,119.22 35.54,235.36 85.85,340.46 50.19,105.15 121.01,199.18 206.1,275.56 85.09,76.45 184.29,135.14 289.65,172.12 105.39,37.13 216.64,52.44 326.38,46.26 109.78,-6.1 216.11,-33.65 312.28,-80.25 96.18,-46.46 182.09,-111.82 251.7,-190.16"
         style="fill:#00adef;fill-opacity:1;fill-rule:nonzero;stroke:none"
         id="path16"
         inkscape:connector-curvature="0" /></g></g></svg>