<?xml version="1.0" encoding="UTF-8" standalone="no"?>
<svg
   xmlns:dc="http://purl.org/dc/elements/1.1/"
   xmlns:cc="http://creativecommons.org/ns#"
   xmlns:rdf="http://www.w3.org/1999/02/22-rdf-syntax-ns#"
   xmlns:svg="http://www.w3.org/2000/svg"
   xmlns="http://www.w3.org/2000/svg"
   viewBox="0 0 702.33331 933.53333"
   height="933.53333"
   width="702.33331"
   xml:space="preserve"
   id="svg2"
   version="1.1"><metadata
     id="metadata8"><rdf:RDF><cc:Work
         rdf:about=""><dc:format>image/svg+xml</dc:format><dc:type
           rdf:resource="http://purl.org/dc/dcmitype/StillImage" /></cc:Work></rdf:RDF></metadata><defs
     id="defs6"><clipPath
       id="clipPath20"
       clipPathUnits="userSpaceOnUse"><path
         id="path18"
         d="M 0,7001.5 V 0 h 5267.5 v 7001.5 z" /></clipPath></defs><g
     transform="matrix(1.3333333,0,0,-1.3333333,0,933.53333)"
     id="g10"><g
       transform="scale(0.1)"
       id="g12"><g
         id="g14"><g
           clip-path="url(#clipPath20)"
           id="g16"><path
             id="path22"
             style="fill:#00adef;fill-opacity:1;fill-rule:nonzero;stroke:none"
             d="m 2255.62,1971.85 h -256.45 v 628.28 h -438.92 v -628.28 h -256.44 v 1389.73 h 256.44 v -591.8 h 438.92 v 591.8 h 256.45 V 1971.85" /><path
             id="path24"
             style="fill:#00adef;fill-opacity:1;fill-rule:nonzero;stroke:none"
             d="m 3046.65,1537.87 h -565.17 l 302.81,426.09 c 49.96,69.69 74.96,127.88 74.96,174.57 0,86.8 -50.65,130.2 -151.9,130.2 -49.31,0 -96.33,-10.84 -141.04,-32.54 l -46.36,115.39 c 66.41,33.53 143.34,50.31 230.8,50.31 101.92,0 178.53,-27.62 229.82,-82.85 38.79,-42.09 58.19,-93.71 58.19,-154.86 0,-68.39 -36.84,-149.93 -110.47,-244.61 l -186.41,-238.7 h 304.77 v -143" /><path
             id="path26"
             style="fill:#0e5590;fill-opacity:1;fill-rule:nonzero;stroke:none"
             d="M 925.938,4197.94 H 3411.03 V 560 H 925.938 Z m 0,2425.24 c 131.642,69.3 299.072,103.9 502.342,103.9 29.59,0 73.59,-0.05 121.39,-0.1 l 1237.83,0.01 c 47.8,0.05 91.78,-1.32 121.36,-1.32 203.2,0 370.57,-33.19 502.17,-102.49 V 6170.64 H 925.938 Z M 4030.1,560 v 6172.89 c -175.42,85.5 -322.05,145.54 -439.79,180.21 -220.04,64.18 -489.19,87.93 -807.05,88.4 H 1553.92 c -317.97,-0.47 -587.209,-24.22 -807.326,-88.4 -117.778,-34.67 -264.453,-94.71 -439.946,-180.21 l 0,-6172.89 H 0 V 0 H 4337.53 V 560 H 4030.1" /><path
             id="path28"
             style="fill:#00adef;fill-opacity:1;fill-rule:nonzero;stroke:none"
             d="m 4307.92,5632.23 v -395.97 l 329.84,-329.85 v -706.69 l 349.74,0.01 V 1112.65 h -338.08 v 2429.22 h -280 V 832.648 H 5267.5 V 4672.65 l -959.58,959.58" /></g></g></g></g></svg>