<?xml version="1.0" encoding="utf-8"?>
<!-- Generator: Adobe Illustrator 19.2.1, SVG Export Plug-In . SVG Version: 6.00 Build 0)  -->
<svg version="1.1"
	 id="svg2" inkscape:version="0.91 r13725" sodipodi:docname="LG_Icon_Maintenance_CMYK_RZ.svg" xmlns:cc="http://creativecommons.org/ns#" xmlns:dc="http://purl.org/dc/elements/1.1/" xmlns:inkscape="http://www.inkscape.org/namespaces/inkscape" xmlns:rdf="http://www.w3.org/1999/02/22-rdf-syntax-ns#" xmlns:sodipodi="http://sodipodi.sourceforge.net/DTD/sodipodi-0.dtd" xmlns:svg="http://www.w3.org/2000/svg"
	 xmlns="http://www.w3.org/2000/svg" xmlns:xlink="http://www.w3.org/1999/xlink" x="0px" y="0px" viewBox="0 0 874.8 875"
	 style="enable-background:new 0 0 874.8 875;" xml:space="preserve">
<style type="text/css">
	.st0{fill:#0E5590;}
	.st1{fill:#00ADEF;}
</style>
<sodipodi:namedview  bordercolor="#666666" borderopacity="1" gridtolerance="10" guidetolerance="10" id="namedview4" inkscape:current-layer="g10" inkscape:cx="437.39999" inkscape:cy="437.5" inkscape:pageopacity="0" inkscape:pageshadow="2" inkscape:window-height="480" inkscape:window-maximized="0" inkscape:window-width="717" inkscape:window-x="0" inkscape:window-y="0" inkscape:zoom="0.26971429" objecttolerance="10" pagecolor="#ffffff" showgrid="false">
	</sodipodi:namedview>
<path id="path14" inkscape:connector-curvature="0" class="st0" d="M836,425.7l-40.3,41.7c-3.1,38-12.1,74.9-27,110
	c-18.1,42.8-44,81.3-77.1,114.3c-33,33-71.5,59-114.3,77.1c-36.4,15.4-74.7,24.5-114.2,27.3l41.5,41.5L468.5,875
	c218-15.3,392-191.5,405.7-409.9L836,425.7"/>
<path id="path16" inkscape:connector-curvature="0" class="st1" d="M448.9,78c44.5,1.4,87.7,10.8,128.5,28
	c42.8,18.1,81.3,44,114.3,77.1c33,33,59,71.5,77.1,114.3c17.2,40.7,26.6,83.8,28,128.2l39.2-39.2l38.8,38.8
	C868.5,195.1,684.6,9.1,455.2,0l-43.4,42.2L448.9,78"/>
<path id="path18" inkscape:connector-curvature="0" class="st0" d="M42.6,479.3L78,442.7c0-1.8-0.1-3.5-0.1-5.3
	c0-48.6,9.5-95.6,28.2-139.9c18.1-42.8,44-81.3,77.1-114.3c33-33,71.5-59,114.3-77.1c35.6-15.1,73.1-24.2,111.7-27.1l-36.7-36.7
	L415,0C184.9,12,1.1,202.4,0,435.3L42.6,479.3"/>
<path id="path20" inkscape:connector-curvature="0" class="st1" d="M423.1,796.6c-43.5-1.7-85.7-11-125.6-27.9
	c-42.8-18.1-81.3-44-114.3-77.1c-33-33-59-71.5-77.1-114.3c-13.1-31-21.7-63.4-25.6-96.6l-37.9,37.9L1.9,477.9
	C22,697.1,203.8,869.7,426.9,875l38.6-37.5L423.1,796.6"/>
</svg>
