<?xml version="1.0" encoding="UTF-8" standalone="no"?>
<!-- Created with Inkscape (http://www.inkscape.org/) -->

<svg
   xmlns:dc="http://purl.org/dc/elements/1.1/"
   xmlns:cc="http://creativecommons.org/ns#"
   xmlns:rdf="http://www.w3.org/1999/02/22-rdf-syntax-ns#"
   xmlns:svg="http://www.w3.org/2000/svg"
   xmlns="http://www.w3.org/2000/svg"
   xmlns:sodipodi="http://sodipodi.sourceforge.net/DTD/sodipodi-0.dtd"
   xmlns:inkscape="http://www.inkscape.org/namespaces/inkscape"
   id="svg2"
   version="1.1"
   inkscape:version="0.91 r13725"
   xml:space="preserve"
   width="930.45001"
   height="875"
   viewBox="0 0 930.45001 875"
   sodipodi:docname="LG_Icon_Logout_CMYK_RZ_99333.svg"><metadata
     id="metadata8"><rdf:RDF><cc:Work
         rdf:about=""><dc:format>image/svg+xml</dc:format><dc:type
           rdf:resource="http://purl.org/dc/dcmitype/StillImage" /><dc:title></dc:title></cc:Work></rdf:RDF></metadata><defs
     id="defs6" /><sodipodi:namedview
     pagecolor="#ffffff"
     bordercolor="#666666"
     borderopacity="1"
     objecttolerance="10"
     gridtolerance="10"
     guidetolerance="10"
     inkscape:pageopacity="0"
     inkscape:pageshadow="2"
     inkscape:window-width="717"
     inkscape:window-height="480"
     id="namedview4"
     showgrid="false"
     inkscape:zoom="0.26971429"
     inkscape:cx="465.22501"
     inkscape:cy="437.5"
     inkscape:window-x="0"
     inkscape:window-y="0"
     inkscape:window-maximized="0"
     inkscape:current-layer="g10" /><g
     id="g10"
     inkscape:groupmode="layer"
     inkscape:label="ink_ext_XXXXXX"
     transform="matrix(1.25,0,0,-1.25,0,875)"><g
       id="g12"
       transform="scale(0.1,0.1)"><path
         d="m 4050,1960 0,-1680 -3430,0 0,6440 3430,0 0,-1390 620,0 0,1670 L 0,7000 0,0 l 4660,0 0,1960 -610,0"
         style="fill:#0e5590;fill-opacity:1;fill-rule:nonzero;stroke:none"
         id="path14"
         inkscape:connector-curvature="0" /><path
         d="M 7443.64,3651.1 5685.6,5409.15 5355.96,5079.51 6547.14,3888.33 c -93.99,23.08 -193.95,34.69 -300.15,34.69 l -20.79,0 0,0.01 -3725.27,0 0,-543.87 3751.38,0 c 111.06,0.2 208.17,10.96 292.04,31.93 l -1188.4,-1188.4 329.64,-329.62 1428.4,1428.4 0.01,0 329.64,329.63"
         style="fill:#00adef;fill-opacity:1;fill-rule:nonzero;stroke:none"
         id="path16"
         inkscape:connector-curvature="0" /></g></g></svg>