<?xml version="1.0" encoding="UTF-8" standalone="no"?>
<svg
   xmlns:dc="http://purl.org/dc/elements/1.1/"
   xmlns:cc="http://creativecommons.org/ns#"
   xmlns:rdf="http://www.w3.org/1999/02/22-rdf-syntax-ns#"
   xmlns:svg="http://www.w3.org/2000/svg"
   xmlns="http://www.w3.org/2000/svg"
   viewBox="0 0 1005.96 567.97333"
   height="567.97333"
   width="1005.96"
   xml:space="preserve"
   id="svg2"
   version="1.1"><metadata
     id="metadata8"><rdf:RDF><cc:Work
         rdf:about=""><dc:format>image/svg+xml</dc:format><dc:type
           rdf:resource="http://purl.org/dc/dcmitype/StillImage" /></cc:Work></rdf:RDF></metadata><defs
     id="defs6"><clipPath
       id="clipPath20"
       clipPathUnits="userSpaceOnUse"><path
         id="path18"
         d="M 0,4259.83 V 0 h 7544.67 v 4259.83 z" /></clipPath></defs><g
     transform="matrix(1.3333333,0,0,-1.3333333,0,567.97333)"
     id="g10"><g
       transform="scale(0.1)"
       id="g12"><g
         id="g14"><g
           clip-path="url(#clipPath20)"
           id="g16"><path
             id="path22"
             style="fill:#f7cf1c;fill-opacity:1;fill-rule:nonzero;stroke:none"
             d="m 0.144531,3975.27 v -545.1 H 2.03516 v 546.7 l -1.890629,-1.6" /><path
             id="path24"
             style="fill:#00adef;fill-opacity:1;fill-rule:nonzero;stroke:none"
             d="M 4705.17,3975.99 C 4487.6,4170.7 4357.55,4259.83 3446.42,4259.83 H 1074.89 C 329.27,4248.62 204.176,4158.04 1.96875,3976.87 L 0,1136.64 h 1445.16 c 101.14,129.18 232.06,229.22 390.3,283.82 H 628.688 V 3860.8 c 133.031,69.91 303.199,115.19 508.542,115.19 h 2439.66 c 201.64,-0.87 368.37,-46.16 499.58,-115.19 V 1420.46 H 2402.39 c 121.09,-41.77 232.65,-103.96 325.99,-197.46 25.2,-25.05 48.07,-58.84 69.69,-86.36 h 1907.24 l -0.14,2839.35" /><path
             id="path26"
             style="fill:#0e5590;fill-opacity:1;fill-rule:nonzero;stroke:none"
             d="m 6154.33,1144.35 c -316.6,0 -572.9,-255.862 -572.9,-571.58 0,-316.598 256.3,-572.77 572.9,-572.77 315.73,0 572.91,256.172 572.91,572.77 0,315.718 -257.18,571.58 -572.91,571.58" /><path
             id="path28"
             style="fill:#0e5590;fill-opacity:1;fill-rule:nonzero;stroke:none"
             d="m 2121.98,1144.35 c -316.89,0 -572.99,-255.862 -572.99,-571.58 0,-316.598 256.1,-572.77 572.99,-572.77 315.5,0 571.59,256.172 571.59,572.77 0.15,315.718 -256.09,571.58 -571.59,571.58" /><path
             id="path30"
             style="fill:#0e5590;fill-opacity:1;fill-rule:nonzero;stroke:none"
             d="m 7544.67,568.691 -6.55,1136.049 -613.55,284.27 -626.64,1574.56 H 5029.78 V 852.672 H 2940.86 c 21.91,-76.172 39.69,-151.602 39.69,-233.031 0,-14.981 -1.54,-36.11 -2.26,-50.95 h 2320.03 c -0.88,14.84 -2.33,35.969 -2.33,50.95 0,473.009 385.34,857.909 859.22,857.909 473.59,0 859.21,-384.9 859.21,-857.909 0,-14.981 -1.45,-36.11 -2.33,-50.95 z m -2141.2,1833.769 -2.48,844.07 h 562.86 l 332.04,-844.07 h -892.42" /></g></g></g></g></svg>