<?xml version="1.0" encoding="UTF-8" standalone="no"?>
<svg
   xmlns:dc="http://purl.org/dc/elements/1.1/"
   xmlns:cc="http://creativecommons.org/ns#"
   xmlns:rdf="http://www.w3.org/1999/02/22-rdf-syntax-ns#"
   xmlns:svg="http://www.w3.org/2000/svg"
   xmlns="http://www.w3.org/2000/svg"
   viewBox="0 0 992.98669 933.89331"
   height="933.89331"
   width="992.98669"
   xml:space="preserve"
   id="svg2"
   version="1.1"><metadata
     id="metadata8"><rdf:RDF><cc:Work
         rdf:about=""><dc:format>image/svg+xml</dc:format><dc:type
           rdf:resource="http://purl.org/dc/dcmitype/StillImage" /></cc:Work></rdf:RDF></metadata><defs
     id="defs6" /><g
     transform="matrix(1.3333333,0,0,-1.3333333,0,933.89333)"
     id="g10"><g
       transform="scale(0.1)"
       id="g12"><path
         id="path14"
         style="fill:#0e5590;fill-opacity:1;fill-rule:nonzero;stroke:none"
         d="m 5507.33,2800.83 c 0,-386.72 313.52,-700.04 700.03,-700.04 386.56,0 700.05,313.32 700.05,700.04 0,386.52 -313.49,699.96 -700.05,699.96 -386.51,0 -700.03,-313.44 -700.03,-699.96" /><path
         id="path16"
         style="fill:#0e5590;fill-opacity:1;fill-rule:nonzero;stroke:none"
         d="m 5587.37,280 v 710.531 c 0,441.269 265.22,689.469 620,689.469 354.78,0 619.99,-248.73 619.99,-690 l 0.01,-710 z m 620,1680 c -620,0 -1240,-279.47 -1240,-1117.27 L 4967.69,0 h 2479.67 v 842.73 c 0,837.8 -620,1117.27 -1239.99,1117.27" /><path
         id="path18"
         style="fill:#00adef;fill-opacity:1;fill-rule:nonzero;stroke:none"
         d="m 4966.4,4722.1 v 1281.74 c 0,435.68 -202.55,676.07 -619.99,719.96 l -3105.54,0.04 C 827.344,6678.23 620.867,6437.43 620.867,6003.92 L 620.742,4722.1 H 0.871094 v 1111.74 c 0,400.02 132.683906,700.8 379.023906,913.22 149.16,126.68 323.164,206.84 522.097,240.74 77.754,12.62 190.738,15.51 338.888,16.39 l 3105.53,-0.35 c 151.3,-0.72 266.36,-3.24 345.19,-16.04 198.93,-33.9 372.93,-114.06 522.09,-240.74 246.33,-212.42 372.71,-513.2 372.71,-913.22 V 4722.1 h -620" /><path
         id="path20"
         style="fill:#00adef;fill-opacity:1;fill-rule:nonzero;stroke:none"
         d="M 620.098,5364.83 V 4083.1 c 0,-435.69 202.578,-676.08 620.092,-719.96 l 2012.52,-0.03 820.17,-460.47 v 460.46 h 273.32 c 413.59,45.6 620.1,286.4 620.1,719.92 l 0.14,1281.81 H 5586.4 V 4253.1 c 0,-400.02 -132.71,-700.8 -379.09,-913.23 -149.18,-126.68 -323.21,-206.83 -522.17,-240.74 -77.77,-12.62 -185.02,-15.47 -333.19,-16.35 v -689.13 l -1227.63,689.22 -1884.13,0.23 c -151.33,0.72 -266.413,3.24 -345.256,16.03 -198.957,33.91 -372.993,114.06 -522.168,240.74 C 126.395,3552.3 0,3853.08 0,4253.1 v 1111.73 h 620.098" /><path
         id="path22"
         style="fill:#00adef;fill-opacity:1;fill-rule:nonzero;stroke:none"
         d="m 2721.42,4103.61 c 61.82,0 115.27,-22.54 160.37,-67.62 45.06,-43.81 67.61,-97.28 67.61,-160.36 0,-64.42 -22.55,-118.52 -67.61,-162.29 -45.1,-45.1 -99.2,-67.63 -162.31,-67.63 -63.12,0 -116.6,21.91 -160.35,65.7 -45.11,45.07 -67.64,99.17 -67.64,162.28 0,63.12 22.53,117.87 67.64,164.23 43.75,43.78 97.86,65.69 162.29,65.69 z m -597.03,2169.76 c 170.03,96.6 360.65,144.89 571.9,144.89 270.5,0 474.65,-75.34 612.49,-226.04 101.74,-110.79 152.63,-245.38 152.63,-403.81 0,-197.07 -93.41,-365.16 -280.15,-504.28 -81.13,-60.56 -177.74,-109.52 -289.81,-146.84 L 2848.94,4559.6 H 2588.1 l -56.03,683.97 c 377.4,95.3 566.1,269.8 566.1,523.59 0,123.65 -41.25,221.53 -123.65,293.66 -81.16,72.14 -194.49,108.2 -340.06,108.2 -144.25,0 -281.44,-34.14 -411.52,-102.4 l -98.55,206.75" /></g></g></svg>