<?xml version="1.0" encoding="UTF-8" standalone="no"?>
<svg
   xmlns:dc="http://purl.org/dc/elements/1.1/"
   xmlns:cc="http://creativecommons.org/ns#"
   xmlns:rdf="http://www.w3.org/1999/02/22-rdf-syntax-ns#"
   xmlns:svg="http://www.w3.org/2000/svg"
   xmlns="http://www.w3.org/2000/svg"
   viewBox="0 0 992 933.33331"
   height="933.33331"
   width="992"
   xml:space="preserve"
   id="svg2"
   version="1.1"><metadata
     id="metadata8"><rdf:RDF><cc:Work
         rdf:about=""><dc:format>image/svg+xml</dc:format><dc:type
           rdf:resource="http://purl.org/dc/dcmitype/StillImage" /></cc:Work></rdf:RDF></metadata><defs
     id="defs6"><clipPath
       id="clipPath20"
       clipPathUnits="userSpaceOnUse"><path
         id="path18"
         d="M 0,7000 V 0 h 7439.99 v 7000 z" /></clipPath></defs><g
     transform="matrix(1.3333333,0,0,-1.3333333,0,933.33333)"
     id="g10"><g
       transform="scale(0.1)"
       id="g12"><g
         id="g14"><g
           clip-path="url(#clipPath20)"
           id="g16"><path
             id="path22"
             style="fill:#0e5590;fill-opacity:1;fill-rule:nonzero;stroke:none"
             d="m 1860.01,1960 h 310 v 3360 h -310 z" /><path
             id="path24"
             style="fill:#0e5590;fill-opacity:1;fill-rule:nonzero;stroke:none"
             d="m 2480.01,1960 h 619.988 V 5320 H 2480.01 Z" /><path
             id="path26"
             style="fill:#0e5590;fill-opacity:1;fill-rule:nonzero;stroke:none"
             d="m 4180,1960 h 310 v 3360 h -310 z" /><path
             id="path28"
             style="fill:#0e5590;fill-opacity:1;fill-rule:nonzero;stroke:none"
             d="m 4960,1960 h 620 v 3360 h -620 z" /><path
             id="path30"
             style="fill:#0e5590;fill-opacity:1;fill-rule:nonzero;stroke:none"
             d="m 5880.01,1120 h 310 v 4200 h -310 z" /><path
             id="path32"
             style="fill:#0e5590;fill-opacity:1;fill-rule:nonzero;stroke:none"
             d="m 3565,1960 h 310 v 3360 h -310 z" /><path
             id="path34"
             style="fill:#0e5590;fill-opacity:1;fill-rule:nonzero;stroke:none"
             d="m 1240.01,1120 h 310 v 4200 h -310 z" /><path
             id="path36"
             style="fill:#00adef;fill-opacity:1;fill-rule:nonzero;stroke:none"
             d="M 1860,7000 H 0 V 5140 h 280 v 1580 h 1580 v 280" /><path
             id="path38"
             style="fill:#00adef;fill-opacity:1;fill-rule:nonzero;stroke:none"
             d="m 5579.99,7000 v -280 h 1580 V 5140 h 280 v 1860 h -1860" /><path
             id="path40"
             style="fill:#00adef;fill-opacity:1;fill-rule:nonzero;stroke:none"
             d="M 7159.99,1860 V 280 h -1580 V 0 h 1860 v 1860 h -280" /><path
             id="path42"
             style="fill:#00adef;fill-opacity:1;fill-rule:nonzero;stroke:none"
             d="M 280,280 V 1860 H 0 V 0 H 1860 V 280 H 280" /><path
             id="path44"
             style="fill:#0e5590;fill-opacity:1;fill-rule:nonzero;stroke:none"
             d="m 1860.01,1120 h 310 v 280 h -310 z" /><path
             id="path46"
             style="fill:#0e5590;fill-opacity:1;fill-rule:nonzero;stroke:none"
             d="m 4180.01,1120 h 310 v 280 h -310 z" /><path
             id="path48"
             style="fill:#0e5590;fill-opacity:1;fill-rule:nonzero;stroke:none"
             d="m 3565,1120 h 310 v 280 h -310 z" /><path
             id="path50"
             style="fill:#0e5590;fill-opacity:1;fill-rule:nonzero;stroke:none"
             d="m 4960,1120 h 619.992 v 280 H 4960 Z" /><path
             id="path52"
             style="fill:#0e5590;fill-opacity:1;fill-rule:nonzero;stroke:none"
             d="m 2480,1120 h 620 v 280 h -620 z" /></g></g></g></g></svg>