<?xml version="1.0" encoding="utf-8"?>
<!-- Generator: Adobe Illustrator 19.2.1, SVG Export Plug-In . SVG Version: 6.00 Build 0)  -->
<svg version="1.1"
	 id="svg2" inkscape:version="0.91 r13725" sodipodi:docname="LG_Icon_Maintenance_CMYK_RZ_w.svg" xmlns:cc="http://creativecommons.org/ns#" xmlns:dc="http://purl.org/dc/elements/1.1/" xmlns:inkscape="http://www.inkscape.org/namespaces/inkscape" xmlns:rdf="http://www.w3.org/1999/02/22-rdf-syntax-ns#" xmlns:sodipodi="http://sodipodi.sourceforge.net/DTD/sodipodi-0.dtd" xmlns:svg="http://www.w3.org/2000/svg"
	 xmlns="http://www.w3.org/2000/svg" xmlns:xlink="http://www.w3.org/1999/xlink" x="0px" y="0px" viewBox="0 0 874.8 875"
	 style="enable-background:new 0 0 874.8 875;" xml:space="preserve">
<style type="text/css">
	.st0{fill:#FFFFFF;}
</style>
<sodipodi:namedview  bordercolor="#666666" borderopacity="1" gridtolerance="10" guidetolerance="10" id="namedview4" inkscape:current-layer="g10" inkscape:cx="437.39999" inkscape:cy="437.5" inkscape:pageopacity="0" inkscape:pageshadow="2" inkscape:window-height="480" inkscape:window-maximized="0" inkscape:window-width="717" inkscape:window-x="0" inkscape:window-y="0" inkscape:zoom="0.26971429" objecttolerance="10" pagecolor="#ffffff" showgrid="false">
	</sodipodi:namedview>
<g id="g12" transform="scale(0.1,0.1)">
	<path id="path14" inkscape:connector-curvature="0" class="st0" d="M8360.3,4256.6l-402.6,416.8
		c-31.1,379.8-121.3,748.5-269.8,1099.6c-181.1,428-440.4,812.6-770.9,1143.1c-330.5,330.5-715.1,589.8-1143.1,770.9
		c-364,154-747,245.4-1141.6,273.1l414.9,414.9l-362.8,375c2180.2-152.5,3920-1914.6,4056.5-4099.2L8360.3,4256.6"/>
	<path id="path16" inkscape:connector-curvature="0" class="st0" d="M4488.9,780.2c445.3,13.8,877.1,107.7,1285.1,280.3
		c428,181,812.6,440.4,1143.1,770.9c330.4,330.4,589.8,715.1,770.9,1143.1c172.1,406.9,266,837.6,280.1,1281.7l392.2-392.2
		l387.7,387.7C8685,1950.9,6845.6,91.5,4552.1,0l-434.2,421.9L4488.9,780.2"/>
	<path id="path18" inkscape:connector-curvature="0" class="st0" d="M425.6,4793.4l354.3-366.9c-0.2-17.6-0.7-35.1-0.7-52.8
		c0-485.7,95-956.5,282.2-1399.3c181.1-428.1,440.4-812.7,770.9-1143.1c330.4-330.5,715-589.8,1143.1-770.9
		c356.5-150.8,731.1-241.6,1117.1-271.3l-367.3-367.3L4149.8,0C1848.5,120.5,11,2024.1,0,4352.7L425.6,4793.4"/>
	<path id="path20" inkscape:connector-curvature="0" class="st0" d="M4231.4,7966.2c-435-16.9-856.9-110.4-1256-279.2
		c-428.1-181-812.6-440.4-1143.1-770.9c-330.5-330.4-589.8-715-770.9-1143.1c-131.1-309.9-216.7-633.6-256.5-966.4L425.6,5186
		l-407-407c201.3,2191.7,2019,3918.1,4250.5,3971l385.7-375L4231.4,7966.2"/>
</g>
<g id="g10" transform="matrix(1.25,0,0,-1.25,0,671.7375)" inkscape:groupmode="layer" inkscape:label="ink_ext_XXXXXX">
	<g id="g12_1_" transform="scale(0.1,0.1)">
		<path id="path14_1_" inkscape:connector-curvature="0" class="st0" d="M3461.9,701.1c122.8,0,228.6-44.4,317.3-133
			c88.6-88.7,133-195.4,133-320.3c0-124.9-44.3-230.7-133-317.3c-86.6-88.7-193.4-132.9-320.3-132.9
			c-124.9,0-231.7,43.3-320.3,129.9c-86.6,88.6-129.9,195.4-129.9,320.3c0,124.9,44.3,231.6,133,320.3
			C3228.2,656.7,3335,701.1,3461.9,701.1L3461.9,701.1z M2419.5,3907c294.1,155.1,621.4,232.7,982,232.7
			c473.4,0,828.9-125.9,1066.6-377.7c161.1-173.3,241.7-385.8,241.7-637.6c0-310.2-144.1-573.1-432.1-788.6
			c-126.9-96.7-284-177.3-471.4-241.7l-69.5-800.7h-568.1l-93.7,1027.3c562,134.9,843,380.7,843,737.3
			c0,169.2-56.4,303.2-169.2,401.9c-114.8,102.7-280,154.1-495.5,154.1c-217.6,0-427.1-51.4-628.5-154.1L2419.5,3907"/>
	</g>
</g>
</svg>
