<svg id="Icons" xmlns="http://www.w3.org/2000/svg" viewBox="0 0 745 788"><defs><style>.cls-1{fill:#005691;}.cls-2{fill:#009fe3;}.cls-3{fill:none;}</style></defs><title>LG_Icon_Job_Status_Progress</title><polygon class="cls-1" points="249 588 0 337 63 252 249 392 621 0 745 0 249 588"/><path class="cls-2" d="M139,875a75,75,0,1,0,75-75A75,75,0,0,0,139,875Z" transform="translate(-139 -162)"/><path class="cls-2" d="M412,829.87A45.13,45.13,0,1,1,366.87,875,45.18,45.18,0,0,1,412,829.87M412,800a75,75,0,1,0,75,75,75,75,0,0,0-75-75Z" transform="translate(-139 -162)"/><path class="cls-2" d="M610,829.87A45.13,45.13,0,1,1,564.87,875,45.18,45.18,0,0,1,610,829.87M610,800a75,75,0,1,0,75,75,75,75,0,0,0-75-75Z" transform="translate(-139 -162)"/><path class="cls-2" d="M808,829.87A45.13,45.13,0,1,1,762.87,875,45.18,45.18,0,0,1,808,829.87M808,800a75,75,0,1,0,75,75,75,75,0,0,0-75-75Z" transform="translate(-139 -162)"/><line class="cls-3" x1="150" y1="648" x2="200" y2="648"/><path class="cls-2" d="M337,875a75,75,0,1,0,75-75A75,75,0,0,0,337,875Z" transform="translate(-139 -162)"/><path class="cls-2" d="M535,875a75,75,0,1,0,75-75A75,75,0,0,0,535,875Z" transform="translate(-139 -162)"/></svg>